<?xml version="1.0" standalone="no"?>
<!DOCTYPE svg PUBLIC "-//W3C//DTD SVG 20010904//EN"
 "http://www.w3.org/TR/2001/REC-SVG-20010904/DTD/svg10.dtd">
<svg version="1.0" xmlns="http://www.w3.org/2000/svg"
 width="90.000000pt" height="90.000000pt" viewBox="0 0 90.000000 90.000000"
 preserveAspectRatio="xMidYMid meet">
<metadata>
Created by potrace 1.11, written by Peter Selinger 2001-2013
</metadata>
<g transform="translate(0.000000,90.000000) scale(0.100000,-0.100000)"
fill="#000000" stroke="none">
<path d="M428 793 c-13 -21 -29 -48 -36 -58 -6 -11 -16 -30 -21 -42 -6 -11
-15 -24 -21 -28 -5 -3 -8 -11 -5 -16 4 -5 2 -9 -3 -9 -5 0 -17 -18 -27 -40
-10 -22 -23 -40 -28 -40 -6 0 -8 -3 -5 -6 3 -3 -9 -29 -28 -57 -19 -28 -34
-57 -34 -64 0 -7 -4 -13 -10 -13 -5 0 -10 -4 -10 -9 0 -8 -80 -151 -90 -161
-3 -3 -12 -19 -21 -35 -46 -86 -55 -100 -61 -103 -5 -2 -8 -10 -8 -18 0 -8 -5
-14 -11 -14 -5 0 -7 -5 -4 -10 8 -13 885 -14 885 0 0 5 -14 33 -31 62 -18 29
-40 68 -50 86 -11 17 -27 47 -38 65 -10 17 -33 57 -51 87 -18 30 -41 69 -50
85 -10 17 -40 68 -69 115 -28 47 -56 97 -62 113 -6 15 -15 27 -21 27 -5 0 -6
5 -3 10 3 6 2 10 -3 10 -5 0 -13 8 -16 18 -4 9 -15 32 -26 51 l-18 33 -24 -39z
m147 -400 c-1 -40 2 -38 -66 -42 -14 -1 -16 -12 -15 -68 1 -38 -2 -74 -7 -80
-5 -7 -26 -13 -46 -13 l-36 0 2 80 c1 84 2 83 -49 82 -29 -1 -34 8 -33 53 l0
30 113 0 c61 0 112 4 112 9 0 5 6 4 13 -2 7 -7 13 -28 12 -49z"/>
</g>
</svg>
